Patient4_TMGait_0pt7_01_left_38_GRF.mot
version=1
nRows=45
nColumns=19
inDegrees=no
endheader
time	F1x	F1y	F1z	M1x	M1y	M1z	F2x	F2y	F2z	M2x	M2y	M2z	EC1x	EC1y	EC1z	EC2x	EC2y	EC2z
43.96	-33.4567	9.0565	-16.8855	-0.91551	6.5663	13.3984	-47.8612	735.5571	-71.5227	296.1169	86.1562	815.2024	-0.0592	0.0182	-0.0073	-0.0462	0.0165	0.9585
43.9716	-22.4441	6.8576	-11.1984	-0.86011	4.1863	9.8491	-41.9153	735.7205	-67.8651	292.4563	83.12	813.6037	-0.0592	0.0182	-0.0073	-0.0462	0.0165	0.9585
43.9833	-13.2429	5.0339	-6.4324	-0.84091	2.1988	6.9252	-36.0366	733.5928	-64.4467	288.1861	79.7949	808.6509	-0.0592	0.0182	-0.0073	-0.0462	0.0165	0.9585
43.9949	-6.3014	3.6633	-2.8092	-0.84714	0.6858	4.7288	-30.4875	729.6002	-61.5828	283.6387	76.4551	800.8725	-0.0592	0.0182	-0.0073	-0.0462	0.0165	0.9585
44.0066	-1.5784	2.7861	-0.34089	-0.88338	-0.33582	3.3114	-25.346	724.6034	-59.3447	279.1644	73.2351	791.3298	-0.0592	0.0182	-0.0073	-0.0462	0.0165	0.9585
44.0182	1.2919	2.2944	1.1818	-0.93003	-0.96518	2.4875	-20.6314	719.528	-57.7564	275.0573	70.272	781.1823	-0.0592	0.0182	-0.0073	-0.0462	0.0165	0.9585
44.0299	2.7223	2.1061	1.962	-0.97989	-1.2889	2.1345	-16.2603	715.1976	-56.7168	271.5453	67.5803	771.4299	-0.0592	0.0182	-0.0073	-0.0462	0.0165	0.9585
44.0415	3.1846	2.0613	2.2553	-1.0041	-1.427	2.0244	-12.1767	712.1856	-56.1481	268.7665	65.1888	762.7986	-0.0592	0.0182	-0.0073	-0.0462	0.0165	0.9585
44.0531	3.0018	2.0279	2.2473	-0.97717	-1.4725	1.9918	-8.3052	710.8372	-55.9322	266.7886	63.0642	755.737	-0.0592	0.0182	-0.0073	-0.0462	0.0165	0.9585
44.0648	2.4817	1.8474	2.1032	-0.86432	-1.5002	1.7897	-4.6221	711.2195	-55.9789	265.5944	61.1865	750.3831	-0.0592	0.0182	-0.0073	-0.0462	0.0165	0.9585
44.0764	1.8046	1.4026	1.9279	-0.63488	-1.5621	1.2769	-1.1104	713.1244	-56.216	265.086	59.5287	746.5576	-0.0592	0.0182	-0.0073	-0.0462	0.0165	0.9585
44.0881	1.1239	0.56185	1.7876	-0.25479	-1.6757	0.25307	2.231	716.1869	-56.5636	265.1201	58.0523	743.9077	-0.0592	0.0182	-0.0073	-0.0462	0.0165	0.9585
44.0997	0.51712	-0.74345	1.707	0.29524	-1.8341	-1.3478	5.3842	719.9173	-56.9765	265.5206	56.7389	741.9442	-0.0592	0.0182	-0.0073	-0.0462	0.0165	0.9585
44.1114	0.097092	-2.5371	1.6773	1.0165	-1.9839	-3.5659	8.3458	723.8394	-57.3813	266.1213	55.5211	740.1868	-0.0592	0.0182	-0.0073	-0.0462	0.0165	0.9585
44.123	-0.083893	-4.6986	1.663	1.8607	-2.0539	-6.2354	11.118	727.5281	-57.7706	266.7714	54.3795	738.2188	-0.0592	0.0182	-0.0073	-0.0462	0.0165	0.9585
44.1346	0.11635	-6.9371	1.6103	2.7128	-1.9192	-9.0084	13.7141	730.6168	-58.1309	267.3386	53.2807	735.6868	-0.0592	0.0182	-0.0073	-0.0462	0.0165	0.9585
44.1463	0.80925	-8.6632	1.4177	3.3498	-1.4065	-11.1637	16.1658	732.8332	-58.5459	267.7111	52.2761	732.348	-0.0592	0.0182	-0.0073	-0.0462	0.0165	0.9585
44.1579	2.174	-8.9671	0.97636	3.4218	-0.31226	-11.6035	18.5194	734.018	-59.0928	267.8137	51.4107	728.0654	-0.0592	0.0182	-0.0073	-0.0462	0.0165	0.9585
44.1696	4.3573	-6.5046	0.13901	2.4185	1.5989	-8.6575	20.8067	734.1645	-59.8677	267.622	50.7527	722.8538	-0.0592	0.0182	-0.0073	-0.0462	0.0165	0.9585
44.1812	7.4704	0.44316	-1.2188	-0.31479	4.5207	-0.21788	23.0887	733.3976	-60.878	267.1651	50.2914	716.8551	-0.0592	0.0182	-0.0073	-0.0462	0.0165	0.9585
44.1929	11.4511	13.9179	-3.2126	-5.5492	8.5649	16.2527	25.3745	731.9073	-62.0205	266.4994	49.9395	710.288	-0.0592	0.0182	-0.0073	-0.0462	0.0165	0.9585
44.2045	16.023	35.9695	-5.8394	-14.0568	13.6168	43.311	27.6879	729.7805	-63.0772	265.6537	49.5071	703.2657	-0.0592	0.0182	-0.0073	-0.0462	0.0165	0.9585
44.2161	20.4572	68.1508	-8.955	-26.4148	19.2124	82.9355	30.0192	726.8421	-63.7456	264.5652	48.7338	695.6784	-0.0592	0.0182	-0.0073	-0.0462	0.0165	0.9585
44.2278	23.5083	110.7144	-12.1444	-42.6907	24.3404	135.48	32.3736	722.4451	-63.7209	263.0039	47.3511	686.9706	-0.0592	0.0182	-0.0073	-0.0462	0.0165	0.9585
44.2394	23.3019	161.5772	-14.6281	-62.0515	27.321	198.4544	34.7152	715.4224	-62.7371	260.5424	45.1373	676.1171	-0.0592	0.0182	-0.0073	-0.0462	0.0165	0.9585
44.2511	18.4384	216.0187	-15.3047	-82.6434	26.272	266.0928	37.0178	704.1102	-60.6546	256.5717	41.9867	661.6031	-0.0592	0.0182	-0.0073	-0.0462	0.0165	0.9585
44.2627	9.7969	267.5165	-12.9113	-101.9322	20.0078	330.2796	39.1833	686.8496	-57.4273	250.4741	37.8989	641.9404	-0.0592	0.0182	-0.0073	-0.0462	0.0165	0.9585
44.2744	0.10331	310.1888	-7.1063	-117.715	9.2192	383.3962	41.1062	662.353	-53.1703	241.7684	33.0323	615.9574	-0.0592	0.0182	-0.0073	-0.0462	0.0165	0.9585
44.286	-8.775	342.1602	0.64367	-129.3488	-3.5849	422.7751	42.6156	630.1576	-48.0837	230.2637	27.6364	583.2898	-0.0592	0.0182	-0.0073	-0.0462	0.0165	0.9585
44.2976	-16.0927	365.4755	8.8644	-137.6936	-16.2904	450.7718	43.5956	590.686	-42.4455	216.0961	22.015	544.3612	-0.0592	0.0182	-0.0073	-0.0462	0.0165	0.9585
44.3093	-21.764	384.2797	16.3432	-144.3775	-27.391	472.5572	43.8987	545.1433	-36.5257	199.6893	16.4629	500.3399	-0.0592	0.0182	-0.0073	-0.0462	0.0165	0.9585
44.3209	-25.983	402.2952	22.1493	-150.8772	-35.8575	492.843	43.4669	495.1588	-30.5493	181.6347	11.2043	452.7369	-0.0592	0.0182	-0.0073	-0.0462	0.0165	0.9585
44.3326	-29.0291	421.8896	25.907	-158.1094	-41.3397	514.6346	42.2295	442.6166	-24.6861	162.615	6.4111	403.2975	-0.0592	0.0182	-0.0073	-0.0462	0.0165	0.9585
44.3442	-30.9721	443.902	27.614	-166.3847	-43.9094	538.9602	40.1722	389.3824	-19.0708	143.3133	2.204	353.6883	-0.0592	0.0182	-0.0073	-0.0462	0.0165	0.9585
44.3559	-31.9947	468.3143	27.8571	-175.6397	-44.3291	565.8402	37.2875	337.2515	-13.8691	124.3752	-1.2849	305.5216	-0.0592	0.0182	-0.0073	-0.0462	0.0165	0.9585
44.3675	-32.1726	494.7964	27.3578	-185.672	-43.5207	594.8593	33.6829	287.7007	-9.2563	106.3355	-3.9569	260.0551	-0.0592	0.0182	-0.0073	-0.0462	0.0165	0.9585
44.3791	-31.6335	522.8462	26.9773	-196.2167	-42.5499	625.4691	29.4733	241.8574	-5.4366	89.5973	-5.7018	218.2533	-0.0592	0.0182	-0.0073	-0.0462	0.0165	0.9585
44.3908	-30.5514	551.8766	27.3537	-207.0039	-42.2445	656.8838	24.9128	200.4263	-2.5124	74.417	-6.5401	180.6478	-0.0592	0.0182	-0.0073	-0.0462	0.0165	0.9585
44.4024	-29.1968	581.3214	28.9333	-217.7897	-43.2209	688.4196	20.2068	163.7345	-0.5121	60.9195	-6.5449	147.4843	-0.0592	0.0182	-0.0073	-0.0462	0.0165	0.9585
44.4141	-27.7147	610.8987	31.7539	-228.469	-45.5838	719.688	15.6375	131.8019	0.70096	49.1276	-5.9419	118.6965	-0.0592	0.0182	-0.0073	-0.0462	0.0165	0.9585
44.4257	-26.2034	640.6162	35.4704	-239.0703	-48.9792	750.677	11.3867	104.4219	1.2919	38.9779	-4.9398	94.0724	-0.0592	0.0182	-0.0073	-0.0462	0.0165	0.9585
44.4374	-24.6447	670.2543	39.6451	-249.5589	-52.8992	781.1297	7.6577	81.1411	1.4587	30.326	-3.7732	73.1588	-0.0592	0.0182	-0.0073	-0.0462	0.0165	0.9585
44.449	-23.0415	699.2081	43.9075	-259.7414	-56.9145	810.3477	4.5145	61.5107	1.3692	23.0135	-2.6038	55.5707	-0.0592	0.0182	-0.0073	-0.0462	0.0165	0.9585
44.4606	-21.3565	726.4693	48.1498	-269.2627	-60.8633	837.2018	2.0041	45.057	1.155	16.8784	-1.5557	40.8691	-0.0592	0.0182	-0.0073	-0.0462	0.0165	0.9585
44.4723	-19.5784	750.9602	52.317	-277.7236	-64.6718	860.5424	0.11625	31.4971	0.89299	11.8155	-0.68953	28.8206	-0.0592	0.0182	-0.0073	-0.0462	0.0165	0.9585
